<?xml version="1.0" standalone="no"?><!DOCTYPE svg PUBLIC "-//W3C//DTD SVG 1.1//EN" "http://www.w3.org/Graphics/SVG/1.1/DTD/svg11.dtd"><svg t="1622287781923" class="icon" viewBox="0 0 1024 1024" version="1.1" xmlns="http://www.w3.org/2000/svg" p-id="7279" xmlns:xlink="http://www.w3.org/1999/xlink" width="200" height="200"><defs><style type="text/css"></style></defs><path d="M317 218.7h-73.1c-13.5 0-24.4 10.9-24.4 24.4v536.4c0 13.5 10.9 24.4 24.4 24.4h536.4c13.5 0 24.4-10.9 24.4-24.4V243.1c0-13.5-10.9-24.4-24.4-24.4h-73.1v243.8c0 26.9-21.8 48.8-48.8 48.8H365.8c-26.9 0-48.8-21.8-48.8-48.8V218.7z m-97.5-48.8h585.1c26.9 0 48.8 21.8 48.8 48.8v585.1c0 26.9-21.8 48.8-48.8 48.8H219.5c-26.9 0-48.8-21.8-48.8-48.8V218.7c0-26.9 21.8-48.8 48.8-48.8z m146.3 48.8v219.4c0 13.5 10.9 24.4 24.4 24.4H634c13.5 0 24.4-10.9 24.4-24.4V218.7H365.8z m219.4 48.8c13.5 0 24.4 10.9 24.4 24.4v97.5c0 13.5-10.9 24.4-24.4 24.4-13.5 0-24.4-10.9-24.4-24.4v-97.5c0-13.5 10.9-24.4 24.4-24.4z" fill="#515151" p-id="7280"></path></svg>