<?xml version="1.0" standalone="no"?><!DOCTYPE svg PUBLIC "-//W3C//DTD SVG 1.1//EN" "http://www.w3.org/Graphics/SVG/1.1/DTD/svg11.dtd"><svg t="1622289966885" class="icon" viewBox="0 0 1024 1024" version="1.1" xmlns="http://www.w3.org/2000/svg" p-id="2347" xmlns:xlink="http://www.w3.org/1999/xlink" width="200" height="200"><defs><style type="text/css"></style></defs><path d="M256 512a256 256 0 1 0 512 0 256 256 0 0 0-512 0z" fill="#B72F21" p-id="2348"></path><path d="M510.848 0C228.864 0.384 0.341333 228.906667 0.042667 510.890667c0.256 282.026667 228.821333 510.549333 510.805333 510.848 282.026667-0.298667 510.549333-228.821333 510.848-510.848C1021.397333 228.821333 792.874667 0.298667 510.848 0.042667z m0 948.565333c-241.365333 0-437.674667-196.394667-437.674667-437.717333 0-241.28 196.309333-437.674667 437.674667-437.674667 241.365333 0 437.674667 196.394667 437.674667 437.674667 0 241.322667-196.266667 437.717333-437.674667 437.717333z" fill="#B72F21" opacity=".599" p-id="2349"></path></svg>