<?xml version="1.0" standalone="no"?><!DOCTYPE svg PUBLIC "-//W3C//DTD SVG 1.1//EN" "http://www.w3.org/Graphics/SVG/1.1/DTD/svg11.dtd"><svg t="1622287743985" class="icon" viewBox="0 0 1024 1024" version="1.1" xmlns="http://www.w3.org/2000/svg" p-id="5552" xmlns:xlink="http://www.w3.org/1999/xlink" width="200" height="200"><defs><style type="text/css"></style></defs><path d="M512 88.32a424 424 0 1 1 0 848A424 424 0 0 1 512 88.32z m0 80a344 344 0 1 0 0 688A344 344 0 0 0 512 168.32zM427.2 344.832a32 32 0 0 1 16.448 4.544l225.792 135.488a32 32 0 0 1 0 54.912L443.648 675.2a32 32 0 0 1-48.448-27.52V376.896a32 32 0 0 1 32-32z" p-id="5553" fill="#515151"></path></svg>