<?xml version="1.0" standalone="no"?><!DOCTYPE svg PUBLIC "-//W3C//DTD SVG 1.1//EN" "http://www.w3.org/Graphics/SVG/1.1/DTD/svg11.dtd"><svg t="1622288873901" class="icon" viewBox="0 0 1024 1024" version="1.1" xmlns="http://www.w3.org/2000/svg" p-id="3037" xmlns:xlink="http://www.w3.org/1999/xlink" width="200" height="200"><defs><style type="text/css"></style></defs><path d="M299.484404 192.408869a38.481774 38.481774 0 0 0 38.481774-38.481774V76.963548h347.875235v76.963547a38.481774 38.481774 0 0 0 76.963548 0V76.963548a76.963548 76.963548 0 0 0-76.963548-76.963548H338.158587a76.963548 76.963548 0 0 0-76.963548 76.963548v76.963547a38.481774 38.481774 0 0 0 38.289365 38.481774zM975.609169 231.852687H48.198422a38.481774 38.481774 0 0 0 0 76.963547h927.410747a38.481774 38.481774 0 0 0 0-76.963547zM840.538144 386.357009a38.481774 38.481774 0 0 0-38.481774 38.481773v482.946261a38.481774 38.481774 0 0 1-38.481774 38.481774H260.810222a38.481774 38.481774 0 0 1-38.481774-38.481774V425.031191a38.481774 38.481774 0 1 0-76.963548 0v482.946261a115.445321 115.445321 0 0 0 115.445322 115.445321h502.379556a115.445321 115.445321 0 0 0 115.445322-115.445321v-482.946261a38.481774 38.481774 0 0 0-38.096956-38.674182z" p-id="3038" fill="#515151"></path><path d="M415.506952 734.232244v-230.890643a38.481774 38.481774 0 0 0-76.963547 0v230.890643a38.481774 38.481774 0 0 0 76.963547 0zM685.841413 734.232244v-230.890643a38.481774 38.481774 0 1 0-76.963548 0v230.890643a38.481774 38.481774 0 0 0 76.963548 0z" p-id="3039" fill="#515151"></path></svg>